<mxfile host="Electron" agent="Mozilla/5.0 (X11; Linux x86_64) AppleWebKit/537.36 (KHTML, like Gecko) draw.io/26.0.4 Chrome/128.0.6613.186 Electron/32.2.5 Safari/537.36" version="26.0.4">
  <diagram name="Page-1" id="LlP8LkS9NHbPfx9gnegO">
    <mxGraphModel dx="1114" dy="1198" grid="1" gridSize="10" guides="1" tooltips="1" connect="1" arrows="1" fold="1" page="1" pageScale="1" pageWidth="850" pageHeight="1100" math="0" shadow="0">
      <root>
        <mxCell id="0" />
        <mxCell id="1" parent="0" />
        <mxCell id="UZ564Zmzt5k6VVvAVB_R-1" value="Corporate data center" style="points=[[0,0],[0.25,0],[0.5,0],[0.75,0],[1,0],[1,0.25],[1,0.5],[1,0.75],[1,1],[0.75,1],[0.5,1],[0.25,1],[0,1],[0,0.75],[0,0.5],[0,0.25]];outlineConnect=0;gradientColor=none;html=1;whiteSpace=wrap;fontSize=12;fontStyle=0;container=1;pointerEvents=0;collapsible=0;recursiveResize=0;shape=mxgraph.aws4.group;grIcon=mxgraph.aws4.group_corporate_data_center;strokeColor=#7D8998;fillColor=none;verticalAlign=top;align=left;spacingLeft=30;fontColor=#5A6C86;dashed=0;" vertex="1" parent="1">
          <mxGeometry x="40" y="390" width="380" height="170" as="geometry" />
        </mxCell>
        <mxCell id="UZ564Zmzt5k6VVvAVB_R-11" value="Media&lt;div&gt;Changer&lt;/div&gt;" style="whiteSpace=wrap;html=1;fillColor=#fff2cc;strokeColor=#d6b656;" vertex="1" parent="UZ564Zmzt5k6VVvAVB_R-1">
          <mxGeometry x="190" y="40" width="60" height="40" as="geometry" />
        </mxCell>
        <mxCell id="UZ564Zmzt5k6VVvAVB_R-12" value="Tape&lt;div&gt;Drive&lt;/div&gt;" style="whiteSpace=wrap;html=1;fillColor=#fff2cc;strokeColor=#d6b656;" vertex="1" parent="UZ564Zmzt5k6VVvAVB_R-1">
          <mxGeometry x="190" y="90" width="60" height="40" as="geometry" />
        </mxCell>
        <mxCell id="UZ564Zmzt5k6VVvAVB_R-15" value="Tape&lt;div&gt;Gateway&lt;/div&gt;" style="sketch=0;outlineConnect=0;fontColor=#232F3E;gradientColor=none;fillColor=#7AA116;strokeColor=none;dashed=0;verticalLabelPosition=bottom;verticalAlign=top;align=center;html=1;fontSize=12;fontStyle=0;aspect=fixed;pointerEvents=1;shape=mxgraph.aws4.tape_gateway;" vertex="1" parent="UZ564Zmzt5k6VVvAVB_R-1">
          <mxGeometry x="270" y="46" width="74" height="78" as="geometry" />
        </mxCell>
        <mxCell id="UZ564Zmzt5k6VVvAVB_R-3" value="AWS Cloud" style="points=[[0,0],[0.25,0],[0.5,0],[0.75,0],[1,0],[1,0.25],[1,0.5],[1,0.75],[1,1],[0.75,1],[0.5,1],[0.25,1],[0,1],[0,0.75],[0,0.5],[0,0.25]];outlineConnect=0;gradientColor=none;html=1;whiteSpace=wrap;fontSize=12;fontStyle=0;container=1;pointerEvents=0;collapsible=0;recursiveResize=0;shape=mxgraph.aws4.group;grIcon=mxgraph.aws4.group_aws_cloud_alt;strokeColor=#232F3E;fillColor=none;verticalAlign=top;align=left;spacingLeft=30;fontColor=#232F3E;dashed=0;" vertex="1" parent="1">
          <mxGeometry x="500" y="360" width="315" height="230" as="geometry" />
        </mxCell>
        <mxCell id="UZ564Zmzt5k6VVvAVB_R-4" value="Region" style="points=[[0,0],[0.25,0],[0.5,0],[0.75,0],[1,0],[1,0.25],[1,0.5],[1,0.75],[1,1],[0.75,1],[0.5,1],[0.25,1],[0,1],[0,0.75],[0,0.5],[0,0.25]];outlineConnect=0;gradientColor=none;html=1;whiteSpace=wrap;fontSize=12;fontStyle=0;container=1;pointerEvents=0;collapsible=0;recursiveResize=0;shape=mxgraph.aws4.group;grIcon=mxgraph.aws4.group_region;strokeColor=#00A4A6;fillColor=none;verticalAlign=top;align=left;spacingLeft=30;fontColor=#147EBA;dashed=1;" vertex="1" parent="UZ564Zmzt5k6VVvAVB_R-3">
          <mxGeometry x="17.5" y="40" width="280" height="170" as="geometry" />
        </mxCell>
        <mxCell id="UZ564Zmzt5k6VVvAVB_R-5" value="Virtual Tapes&lt;div&gt;stored in&lt;/div&gt;&lt;div&gt;Amazon S3&lt;/div&gt;" style="sketch=0;outlineConnect=0;fontColor=#232F3E;gradientColor=none;fillColor=#7AA116;strokeColor=none;dashed=0;verticalLabelPosition=bottom;verticalAlign=top;align=center;html=1;fontSize=12;fontStyle=0;aspect=fixed;pointerEvents=1;shape=mxgraph.aws4.bucket;labelPosition=center;spacingLeft=0;" vertex="1" parent="UZ564Zmzt5k6VVvAVB_R-4">
          <mxGeometry x="22.5" y="36" width="75" height="78" as="geometry" />
        </mxCell>
        <mxCell id="UZ564Zmzt5k6VVvAVB_R-6" value="Archived Tapes&lt;div&gt;stored in&lt;/div&gt;&lt;div&gt;Amazon Glacier&lt;/div&gt;" style="sketch=0;outlineConnect=0;fontColor=#232F3E;gradientColor=none;fillColor=#7AA116;strokeColor=none;dashed=0;verticalLabelPosition=bottom;verticalAlign=top;align=center;html=1;fontSize=12;fontStyle=0;aspect=fixed;pointerEvents=1;shape=mxgraph.aws4.snapshot;" vertex="1" parent="UZ564Zmzt5k6VVvAVB_R-4">
          <mxGeometry x="182.5" y="36" width="56" height="78" as="geometry" />
        </mxCell>
        <mxCell id="UZ564Zmzt5k6VVvAVB_R-7" style="edgeStyle=orthogonalEdgeStyle;rounded=0;orthogonalLoop=1;jettySize=auto;html=1;startArrow=classic;startFill=1;" edge="1" parent="UZ564Zmzt5k6VVvAVB_R-4" source="UZ564Zmzt5k6VVvAVB_R-5" target="UZ564Zmzt5k6VVvAVB_R-6">
          <mxGeometry relative="1" as="geometry" />
        </mxCell>
        <mxCell id="UZ564Zmzt5k6VVvAVB_R-13" style="edgeStyle=orthogonalEdgeStyle;rounded=0;orthogonalLoop=1;jettySize=auto;html=1;" edge="1" parent="1" source="UZ564Zmzt5k6VVvAVB_R-9" target="UZ564Zmzt5k6VVvAVB_R-11">
          <mxGeometry relative="1" as="geometry">
            <Array as="points">
              <mxPoint x="190" y="475" />
              <mxPoint x="190" y="450" />
            </Array>
          </mxGeometry>
        </mxCell>
        <mxCell id="UZ564Zmzt5k6VVvAVB_R-14" value="&amp;nbsp;iSCSI&amp;nbsp;" style="edgeStyle=orthogonalEdgeStyle;rounded=0;orthogonalLoop=1;jettySize=auto;html=1;" edge="1" parent="1" source="UZ564Zmzt5k6VVvAVB_R-9" target="UZ564Zmzt5k6VVvAVB_R-12">
          <mxGeometry x="-0.4479" relative="1" as="geometry">
            <Array as="points">
              <mxPoint x="190" y="475" />
              <mxPoint x="190" y="500" />
            </Array>
            <mxPoint as="offset" />
          </mxGeometry>
        </mxCell>
        <mxCell id="UZ564Zmzt5k6VVvAVB_R-9" value="Backup&lt;div&gt;Server&lt;/div&gt;" style="sketch=0;outlineConnect=0;fontColor=#232F3E;gradientColor=none;fillColor=#232F3D;strokeColor=none;dashed=0;verticalLabelPosition=bottom;verticalAlign=top;align=center;html=1;fontSize=12;fontStyle=0;aspect=fixed;pointerEvents=1;shape=mxgraph.aws4.traditional_server;" vertex="1" parent="1">
          <mxGeometry x="65" y="436" width="45" height="78" as="geometry" />
        </mxCell>
        <mxCell id="UZ564Zmzt5k6VVvAVB_R-10" value="&amp;nbsp;HTTPS&amp;nbsp;" style="edgeStyle=orthogonalEdgeStyle;rounded=0;orthogonalLoop=1;jettySize=auto;html=1;startArrow=classic;startFill=1;" edge="1" parent="1" source="UZ564Zmzt5k6VVvAVB_R-15" target="UZ564Zmzt5k6VVvAVB_R-5">
          <mxGeometry x="0.2" relative="1" as="geometry">
            <mxPoint x="315" y="475.0999999999999" as="sourcePoint" />
            <mxPoint as="offset" />
          </mxGeometry>
        </mxCell>
      </root>
    </mxGraphModel>
  </diagram>
</mxfile>
